<?xml version="1.0" standalone="no"?>
<!DOCTYPE svg PUBLIC "-//W3C//DTD SVG 20010904//EN"
 "http://www.w3.org/TR/2001/REC-SVG-20010904/DTD/svg10.dtd">
<svg version="1.0" xmlns="http://www.w3.org/2000/svg"
 width="94.000000pt" height="27.000000pt" viewBox="0 0 94.000000 27.000000"
 preserveAspectRatio="xMidYMid meet">

<g transform="translate(0.000000,27.000000) scale(0.100000,-0.100000)"
fill="#000000" stroke="none">
<path d="M16 254 c-12 -12 -16 -37 -16 -110 0 -53 5 -104 10 -115 10 -18 26
-19 458 -19 335 0 451 3 460 12 8 8 12 49 12 120 0 96 -2 108 -19 118 -13 6
-174 10 -455 10 -382 0 -436 -2 -450 -16z m181 -49 c-4 -8 -14 -15 -23 -15
-16 0 -16 2 1 20 20 22 31 20 22 -5z m133 -15 c-18 -11 -22 -7 -14 14 5 13 10
14 18 6 8 -8 7 -13 -4 -20z m127 -2 c-3 -7 -5 -2 -5 12 0 14 2 19 5 13 2 -7 2
-19 0 -25z m83 3 c0 -13 -2 -13 -9 -2 -7 11 -9 11 -14 0 -3 -8 -6 -5 -6 8 -1
16 3 21 14 17 8 -4 15 -14 15 -23z m17 -3 c-3 -7 -5 -2 -5 12 0 14 2 19 5 13
2 -7 2 -19 0 -25z m233 3 c0 -13 -2 -13 -9 -2 -7 11 -9 11 -14 0 -3 -8 -6 -5
-6 8 -1 16 3 21 14 17 8 -4 15 -14 15 -23z m-410 2 c0 -7 -4 -13 -9 -13 -5 0
-11 6 -14 13 -3 8 1 14 9 14 8 0 14 -6 14 -14z m40 -2 c0 -4 -6 -8 -14 -8 -8
0 -12 6 -9 14 5 13 23 9 23 -6z m17 -3 c-3 -8 -6 -5 -6 6 -1 11 2 17 5 13 3
-3 4 -12 1 -19z m63 3 c0 -4 -6 -8 -14 -8 -8 0 -12 6 -9 14 5 13 23 9 23 -6z
m100 10 c0 -5 -7 -11 -15 -15 -15 -5 -20 5 -8 17 9 10 23 9 23 -2z m60 -8 c0
-14 -2 -15 -9 -4 -7 11 -9 11 -14 0 -4 -10 -6 -9 -6 4 -1 9 6 17 14 17 8 0 15
-8 15 -17z m40 0 c0 -14 -2 -15 -9 -4 -7 11 -9 11 -14 0 -4 -10 -6 -9 -6 4 -1
9 6 17 14 17 8 0 15 -8 15 -17z m130 8 c0 -5 -7 -11 -15 -15 -9 -3 -15 0 -15
9 0 8 7 15 15 15 8 0 15 -4 15 -9z m-606 -51 c-4 -18 -1 -36 6 -45 21 -26 -14
-55 -66 -55 -38 0 -45 4 -59 30 -18 34 -19 54 -5 81 9 15 22 19 70 19 l60 0
-6 -30z m143 -55 c15 -44 10 -57 -12 -29 -14 18 -16 18 -29 1 -22 -29 -26 -19
-9 28 18 54 31 54 50 0z m241 38 c-23 -6 -23 -15 2 -36 11 -9 17 -23 14 -32
-6 -16 -54 -21 -54 -6 0 5 9 7 20 4 26 -7 26 12 -1 31 -27 18 -18 46 13 45 17
-1 18 -2 6 -6z m54 -38 c-2 -15 3 -32 10 -36 10 -7 9 -9 -3 -9 -19 0 -29 20
-29 57 0 15 5 23 13 20 7 -2 11 -16 9 -32z m-209 4 c14 -22 2 -49 -23 -49 -11
0 -20 -7 -20 -16 0 -8 -4 -12 -10 -9 -10 6 -14 78 -5 87 11 11 48 2 58 -13z
m80 0 c14 -22 2 -49 -23 -49 -11 0 -20 -7 -20 -15 0 -8 -4 -15 -10 -15 -5 0
-10 22 -10 48 0 45 1 48 26 47 15 0 31 -7 37 -16z m205 12 c20 -12 11 -55 -12
-59 -27 -6 -48 25 -35 49 10 20 26 24 47 10z m62 -3 c0 -4 -4 -8 -10 -8 -5 0
-10 -11 -10 -25 0 -14 -4 -25 -10 -25 -10 0 -14 52 -5 62 8 8 35 5 35 -4z m58
0 c18 -18 14 -26 -15 -30 l-28 -4 25 -12 25 -12 -25 3 c-18 1 -26 9 -28 26 -5
34 23 52 46 29z"/>
<path d="M330 100 c0 -5 5 -10 10 -10 6 0 10 5 10 10 0 6 -4 10 -10 10 -5 0
-10 -4 -10 -10z"/>
<path d="M414 96 c-6 -17 2 -36 17 -36 12 0 12 37 -1 45 -6 3 -13 -1 -16 -9z"/>
<path d="M496 103 c-12 -12 -6 -43 9 -43 8 0 15 9 15 19 0 21 -13 34 -24 24z"/>
<path d="M704 97 c-6 -17 2 -37 16 -37 15 0 19 29 5 40 -12 10 -16 9 -21 -3z"/>
<path d="M830 100 c0 -5 5 -10 10 -10 6 0 10 5 10 10 0 6 -4 10 -10 10 -5 0
-10 -4 -10 -10z"/>
</g>
</svg>
