<?xml version="1.0" standalone="no"?>
<!DOCTYPE svg PUBLIC "-//W3C//DTD SVG 20010904//EN"
 "http://www.w3.org/TR/2001/REC-SVG-20010904/DTD/svg10.dtd">
<svg version="1.0" xmlns="http://www.w3.org/2000/svg"
 width="94.000000pt" height="27.000000pt" viewBox="0 0 94.000000 27.000000"
 preserveAspectRatio="xMidYMid meet">

<g transform="translate(0.000000,27.000000) scale(0.100000,-0.100000)"
fill="#000000" stroke="none">
<path d="M16 254 c-12 -12 -16 -37 -16 -110 0 -53 5 -104 10 -115 10 -18 26
-19 458 -19 335 0 451 3 460 12 8 8 12 49 12 120 0 96 -2 108 -19 118 -13 6
-174 10 -455 10 -382 0 -436 -2 -450 -16z m308 -49 c-5 -11 -2 -13 10 -9 9 3
16 2 16 -4 0 -11 -25 -10 -36 0 -3 4 -3 11 1 17 9 16 15 13 9 -4z m79 -10 c-7
-21 -13 -19 -13 6 0 11 4 18 10 14 5 -3 7 -12 3 -20z m60 0 c-7 -21 -13 -19
-13 6 0 11 4 18 10 14 5 -3 7 -12 3 -20z m-281 -22 c21 -13 42 -23 48 -23 5 0
10 -4 10 -9 0 -15 -41 -24 -53 -12 -8 8 -24 -2 -59 -36 l-48 -47 0 66 c0 73
12 87 51 61 l24 -16 -25 27 c-21 24 -22 26 -5 20 11 -4 37 -18 57 -31z m198
28 c0 -6 -4 -13 -10 -16 -5 -3 -10 1 -10 9 0 9 5 16 10 16 6 0 10 -4 10 -9z
m57 -13 c-3 -8 -6 -5 -6 6 -1 11 2 17 5 13 3 -3 4 -12 1 -19z m83 5 c0 -14 -2
-15 -9 -4 -7 11 -9 11 -14 0 -4 -10 -6 -9 -6 4 -1 9 6 17 14 17 8 0 15 -8 15
-17z m40 0 c0 -14 -2 -15 -9 -4 -7 11 -9 11 -14 0 -4 -10 -6 -9 -6 4 -1 9 6
17 14 17 8 0 15 -8 15 -17z m-185 -63 c3 -6 -1 -7 -9 -4 -18 7 -21 14 -7 14 6
0 13 -4 16 -10z m217 -30 c2 -22 0 -40 -4 -40 -5 0 -8 18 -8 40 0 22 2 40 4
40 2 0 6 -18 8 -40z m-276 14 c-8 -21 11 -54 31 -54 9 0 14 -3 10 -6 -9 -10
-45 6 -51 23 -7 16 1 53 11 53 3 0 2 -7 -1 -16z m441 -36 c-2 -13 -4 -5 -4 17
-1 22 1 32 4 23 2 -10 2 -28 0 -40z m-350 26 c-3 -4 -2 -15 4 -25 10 -20 -4
-28 -16 -9 -8 12 1 40 11 40 4 0 4 -3 1 -6z m43 -19 c0 -8 -3 -16 -7 -18 -5
-3 -8 5 -8 18 0 13 3 21 8 18 4 -2 7 -10 7 -18z m60 14 c0 -8 5 -7 16 1 12 11
15 11 12 0 -2 -7 3 -15 11 -18 10 -3 12 0 8 12 -4 9 -3 16 2 16 15 0 9 -81 -6
-87 -22 -9 -39 13 -24 31 9 11 9 16 0 21 -6 4 -15 2 -19 -5 -5 -8 -9 -3 -12
14 -3 14 -1 26 3 26 5 0 9 -5 9 -11z m107 5 c-3 -4 -2 -15 4 -25 6 -11 6 -19
0 -19 -5 0 -12 7 -15 16 -6 16 0 34 11 34 4 0 3 -3 0 -6z m86 -30 c-4 -52 -13
-55 -13 -6 0 23 4 42 8 42 5 0 7 -16 5 -36z m37 11 c0 -32 -6 -32 -12 0 -3 14
-1 25 3 25 5 0 9 -11 9 -25z m80 0 c0 -14 -5 -25 -11 -25 -5 0 -7 5 -4 10 3 6
-1 10 -10 10 -10 0 -13 -5 -9 -12 4 -7 3 -8 -5 -4 -14 9 -5 26 15 26 8 0 12 5
9 10 -3 6 -1 10 4 10 6 0 11 -11 11 -25z m46 12 c13 16 13 15 2 -12 -6 -16
-18 -37 -27 -45 -13 -13 -14 -13 -4 0 6 9 7 23 2 35 -11 29 -10 43 2 22 10
-18 11 -18 25 0z m-393 -17 c3 -11 1 -18 -4 -14 -5 3 -9 12 -9 20 0 20 7 17
13 -6z"/>
<path d="M536 53 c-11 -11 -6 -23 9 -23 8 0 15 4 15 9 0 13 -16 22 -24 14z"/>
</g>
</svg>
